<svg xmlns="http://www.w3.org/2000/svg" width="33" height="30" viewBox="0 0 33 30">
    <defs>
        <linearGradient id="2hfglltqea" x1="100%" x2="0%" y1="50%" y2="50%">
            <stop offset="0%" stop-color="#30C86F"/>
            <stop offset="100%" stop-color="#00A1FF"/>
        </linearGradient>
        <linearGradient id="dj5dd5p04b" x1="0%" x2="100%" y1="50%" y2="50%">
            <stop offset="0%" stop-color="#3A3A3A"/>
            <stop offset="100%" stop-color="#232323"/>
        </linearGradient>
    </defs>
    <g fill="none" fill-rule="evenodd">
        <g>
            <g>
                <path fill="#00A1FF" fill-rule="nonzero" d="M16.058 20.156s-2.502-2.316-5.097.352c0 0-1.927 2.298.667 4.967 0 0 1.928-1.67 2.113.351 0 0 1.297-.017 1.149 1.28 0 0 1.408-.463 1 1.297 0 0 1.001.186.742 1.52 0 0 1.204.352 1.019-.667l-1.13-1.186s-.168-.52.352-.26l1.427 1.428s1.02.24.76-.834l-1.408-1.446s-.149-.463.26-.222l1.537 1.39s.983.26.668-.797l-1.539-1.502s-.056-.481.408-.24l1.464 1.427s.982.352.834-.815l-3.633-3.467s-.148-.24-.556.241l-1.408 1.372s-2.65.74-2.113-1.78l2.484-2.409z" transform="translate(-71 -15) translate(71 15)"/>
                <path fill="#3AC772" d="M14.056 22.658l2.984-2.91s2.108-1.868 4.26.112c0 0 2.003 1.865 1.096 4.059 0 0-.933 1.358-1.297 1.556l-3.132-3.039s-.76-.5-1.168.167l-1.464 1.372s-1.705.5-1.279-1.317zM11.499 26.254l.87-.779s1.075-.63.964.538l-1.038 1.093s-1.13.408-.796-.852zM12.63 27.403l.963-1.001s.982-.463.797.667l-.946 1.02s-.83.283-.815-.686zM14.779 27.458l-1.093 1.057s-.056.99.89.76l.908-1.001s.425-1.001-.705-.816zM16.05 29.504c0 .264-.214.478-.477.478-.264 0-.477-.214-.477-.478 0-.263.213-.477.477-.477.263 0 .477.214.477.477z" transform="translate(-71 -15) translate(71 15)"/>
                <path fill="url(#2hfglltqea)" d="M15.708 2.72S.213 3.95 0 18.988c0 0 2.138-4.068 8.458-1.423 0 0 .835-5.485 3.062-6.71 0 0-1.723 6.028-1.29 8.133 0 0 5.493-5.617 12.221-.133 0 0-.767-6.187-1.795-8 0 0 2.136 1.125 3.273 6.857 0 0 4.354-3.474 8.256 1.276 0 0 .105-14.356-15.418-16.266h-1.06z" transform="translate(-71 -15) translate(71 15)"/>
                <path fill="url(#dj5dd5p04b)" fill-rule="nonzero" d="M15.595 0H17.065V2.721H15.595z" transform="translate(-71 -15) translate(71 15)"/>
            </g>
        </g>
    </g>
</svg>
